<?xml version="1.0" encoding="UTF-8" standalone="no"?>
<!-- Created with Inkscape (http://www.inkscape.org/) -->

<svg
   width="32"
   height="32"
   viewBox="0 0 32 32"
   version="1.1"
   id="svg1"
   xmlns="http://www.w3.org/2000/svg"
   xmlns:svg="http://www.w3.org/2000/svg">
  <defs
     id="defs1" />
  <g
     id="layer1">
    <path
       id="path1"
       style="fill:#ffffff;fill-opacity:1;stroke:none;stroke-width:0;stroke-linecap:round;stroke-linejoin:round;stroke-opacity:1;paint-order:markers stroke fill"
       d="m 18.350265,1.2095661 a 1.0448164,1.0448164 0 0 0 -0.64142,0.2678208 L 2.2270033,15.509845 a 0.62855798,0.62855798 0 0 0 0.4208612,1.093789 H 5.627652 v 11.523045 a 2.304609,2.304609 0 0 0 2.304609,2.30461 h 16.132263 a 2.304609,2.304609 0 0 0 2.304609,-2.30461 V 24.669766 H 13.693784 v 2.986539 a 0.76013144,0.76013144 0 0 1 -1.24683,0.582904 L 8.026786,24.557236 a 1.3489205,1.3489205 0 0 1 0.00225,-2.075049 l 4.42917,-3.675221 a 0.76702899,0.76702899 0 0 1 1.255832,0.596409 l -0.02025,2.961782 h 12.675349 v -5.761523 h 2.979788 a 0.65066072,0.65066072 0 0 0 0.447868,-1.123046 L 19.455306,5.6567413 V 2.2515915 A 1.0448164,1.0448164 0 0 0 18.350265,1.2095661 Z m 2.248344,8.6895468 a 1.0801081,1.0801081 0 0 1 0.663924,0.2813241 l 3.32863,3.027049 a 1.4753748,1.4753748 0 0 1 0,2.183078 l -3.006794,2.734472 A 1.2726897,1.2726897 0 0 1 19.455306,17.184287 V 15.45133 h -6.913827 a 1.1523045,1.1523045 0 0 0 -1.152304,1.152304 v 2.342869 l -2.3046094,1.913006 v -4.255875 a 3.4569136,3.4569136 0 0 1 3.4569134,-3.456913 h 6.913827 v -2.167323 a 1.0801081,1.0801081 0 0 1 0.997013,-1.0780346 1.0801081,1.0801081 0 0 1 0.14629,-0.0023 z" />
  </g>
</svg>
